<svg id="Layer_1" data-name="Layer 1" xmlns="http://www.w3.org/2000/svg" width="884.17834" height="343.56724" viewBox="0 0 884.17834 343.56724"><defs><style>.cls-1{opacity:0.51;}.cls-2{fill:#d8daec;}</style></defs><g class="cls-1"><path class="cls-2" d="M-154.52225,352.48882s0,11.65507,2.97579,14.63086,7.43941,5.70363,8.67942,7.43954,3.96772,4.71156,5.2076,6.69542,5.2076,3.71977,6.19953,5.2076,1.23987,5.45568,2.97579,5.45568c1.73577,0,5.95158-.496,7.93544,0s4.9595,4.21567,6.44747,6.94337c1.48782,2.72784.49589,5.20774,1.98386,6.19967,1.48782.99179,3.71963,0,4.46361,1.48782s.496,10.66315,2.4799,11.65508,4.46361.99193,6.69542,1.24,4.95965,1.73577,5.2076,2.7277-.4959,6.69557.99193,7.43955,4.95965-2.232,6.19952-1.73591c1.24.49589-.74384,3.22373,0,4.95965s2.97579,4.46361,4.21581,6.69542,3.47169,11.40726,3.71963,12.89509-.24794,5.95158,1.73592,5.70363,4.95962.01986,7.43943.00993,4.95963,1.97393,4.46367,4.20574.496,5.95157,2.47981,6.69542,7.68743,5.45568,8.67935,7.19145c.99193,1.73592-1.48788,4.95965,0,6.44762,1.48789,1.48782,3.22377,5.70349,5.20763,7.68735s4.95969,4.46375,4.46365,7.19146-1.62613,6.94351.055,8.18338c1.68095,1.24,5.15264,3.22388,6.39252,4.95965s1.73591,8.18339,4.2158,9.42341,6.19953,5.20759,8.92723,6.44747,5.95158,2.23181,6.44762,3.71977c.49589,1.48783,2.7277,7.9353,4.21566,8.67928s5.70349,3.71978,8.92737,5.70364,4.21567,5.70349,6.44748,6.69542,5.95158,3.47182,9.17531,4.95965,3.71977,4.95965,4.95965,6.19952,6.69542,6.19953,9.17532,8.43134c2.47975,2.23194,3.47168,4.46375,4.71156,3.96772s-1.73577-4.95965-1.73577-6.69542-.13957-4.46376,2.03812-3.47183,4.40935,5.45569,6.14526,5.2076,2.97579-3.96758,4.21567-4.71156,1.98386-3.47183,3.47169-2.4799,1.23987,4.95965,2.2318,6.44762c.99193,1.48782,3.22388,2.97578,4.21581,1.98386s2.97579-7.19146,2.7277-13.143-1.73577-13.143-1.98386-15.87088-.20543-5.95158,2.00512-7.4394,1.26113-3.47183,0-4.95965.19229-3.96772,1.32546-5.95158,3.33044-6.94351,0-8.43134a13.31973,13.31973,0,0,1-6.30637-6.94351c-.74384-1.98385-1.48782-2.2318-3.47168-3.22373s-7.19146,0-9.42327-.99193-3.71977,1.48782-4.21566,2.47975c-.496.99193-2.72784-1.23987-1.98386-2.2318s4.46361-3.47169,3.71963-4.95965-1.73577-.99193-3.47168-1.23988-1.98386-1.73591-2.4799-3.22374c-.49589-1.488-2.47975-2.72784-2.7277-4.46361-.24795-1.73592-.496-4.95965,0-6.44762.49589-1.48782-.24795-4.95965-2.72784-4.95965s-5.7035.744-8.43134,0-6.44761-3.22373-7.4394-4.71156.248-2.47989.99179-4.46375-.4959-1.23988-1.98372-1.98386.49589-1.48783.248-2.23181-2.72785-3.71963,2.97579-4.71156c5.70349-.99193,4.95964-4.95965,3.71963-6.19967s-7.9353-5.45554-8.92723-5.45554-7.93544,4.21566-9.67135,4.46375-3.71977-.24809-2.72784-1.24,6.44761-2.47975,6.44761-3.47168a2.94149,2.94149,0,0,0-2.97579-3.22374,24.93366,24.93366,0,0,1-7.68749-1.73591c-2.23181-.99193-6.44748-3.47168-6.44748-5.45554s.24795-4.21567-1.98386-5.95158-3.47168-3.96772-6.44747-3.47183c-2.97579.496-5.70363.496-6.19953-1.23988s.99193-5.20759-1.24-7.93543-3.71964-4.21567-6.44748-4.46362-2.47975,2.97579-1.98386,4.46362c.496,1.488,2.23181,4.95964.99193,4.7117s-3.58342-2.23181-5.38741-4.7117-5.02781-4.46362-5.27579-6.69543-.74395-5.70363-1.73587-6.19952c-.99193-.496-.74395,3.71963-2.47982,3.47168s-2.97578-3.09969-3.34775-5.14564-3.53374-5.2076-7.25345-7.06742-9.11327-6.50956-11.34522-7.4394a11.468,11.468,0,0,1-5.0216-4.27776c-1.11583-1.67382-2.04581-2.04581-4.8356-3.34778s-5.76559-2.97579-5.57959-3.53364,2.78979-1.488,2.2318-2.78979-5.76558-3.71977-6.13757-4.64975.186-2.23181-.37185-3.90563c-.558-1.674-7.62554-7.25355-8.36938-8.55538-.744-1.302-.372-2.4178-1.674-2.78979s-2.97579,3.90563-4.27762,3.90563-3.16179-1.11584-4.83575-1.85982-4.64961-1.67382-6.69542-1.116-4.27776,2.23194-5.57959,2.046-7.81139-1.86-8.55538-3.71977a11.18126,11.18126,0,0,0-6.32357-5.2076C-148.94266,350.7529-154.54057,351.445-154.52225,352.48882Z" transform="translate(154.52229 -325.4165)"/><path class="cls-2" d="M-128.85611,415.1759c.61266,1.30057-3.90577.11426-5.95158-1.00172-2.04582-1.11583-3.90577-3.90562-5.76559-3.71963s-5.39359-1.85995-5.0216-2.78979,2.04581-4.46376,4.46362-3.71977,2.01868,2.2318,3.8922,3.71977C-135.36568,409.15258-129.78609,413.20169-128.85611,415.1759Z" transform="translate(154.52229 -325.4165)"/><path class="cls-2" d="M-116.39511,432.95876c-1.44657.65756.558,3.71977,2.23195,4.83575s4.64961,2.83468,5.20759,4.39313,1.11584,4.72009,2.41781,5.83606,2.20985,1.67382,3.52273.744c1.31287-.93,2.42885-5.85467,2.61484-6.833s-3.53377-3.58231-4.64975-4.51215c-1.11583-.93-3.53363-5.95158-5.0216-5.95158A18.10743,18.10743,0,0,0-116.39511,432.95876Z" transform="translate(154.52229 -325.4165)"/><path class="cls-2" d="M-87.75319,478.15345c-1.62669.54219.744,8.74137,1.67382,9.48536s9.85735,7.4394,10.97324,6.88141-2.50512-6.10457-2.83348-8.16688-1.63019-7.6419-2.74616-8.19989S-86.07937,477.59546-87.75319,478.15345Z" transform="translate(154.52229 -325.4165)"/><path class="cls-2" d="M-69.15456,499.16983a2.9582,2.9582,0,0,0,0,3.90577,6.42025,6.42025,0,0,0,4.27767,1.18408C-64.13293,504.00558-67.66668,498.054-69.15456,499.16983Z" transform="translate(154.52229 -325.4165)"/><path class="cls-2" d="M-60.41322,508.46919c-.74469,1.11542-1.85986,5.2076-1.11592,5.57959s4.0917-.372,4.83565-1.116S-59.67782,507.36777-60.41322,508.46919Z" transform="translate(154.52229 -325.4165)"/><path class="cls-2" d="M-55.36727,515.16476c-1.41769.38206,1.64956,6.50942,2.95146,5.95158C-51.11391,520.55835-53.2971,514.60677-55.36727,515.16476Z" transform="translate(154.52229 -325.4165)"/><path class="cls-2" d="M11.82522,463.05536c-1.79968.75475-2.97579,1.8931-2.97579,2.45109s-.186,3.53364,1.48782,3.53364a4.95828,4.95828,0,0,0,3.71978-1.48783C14.615,466.80828,12.75743,462.66435,11.82522,463.05536Z" transform="translate(154.52229 -325.4165)"/><path class="cls-2" d="M24.47753,457.32306c-.29214,1.37861,1.22086,3.16165,1.59285,4.27762s-2.06972,2.04581-1.59285,2.97579,1.22086,2.6038,2.70869,2.23181,1.83981-1.733,4.26769-.77349,4.65968.90033,5.21766,0-1.48782-3.45113-3.34778-3.94255-6.32357-3.83934-7.25341-4.76918S24.71122,456.22052,24.47753,457.32306Z" transform="translate(154.52229 -325.4165)"/><path class="cls-2" d="M-18.00834,560.17331c-1.7815-.53435-1.674,1.86-1.674,2.6038s3.16179,3.90577,4.27776,3.34778,2.6038-2.16622,1.67382-2.94292S-16.14852,560.7313-18.00834,560.17331Z" transform="translate(154.52229 -325.4165)"/><path class="cls-2" d="M38.1594,499.03069c.35311-1.77409,5.02174-3.70048,5.39359-4.47746s0-2.6368,0-3.56678,2.23195-2.23181,3.16178-1.85982,2.7898,5.37527,3.71978,4.91952c.93-.4559-.28809-5.4775.97193-5.8495,1.25987-.37185,4.63241,0,4.99195,1.302.35969,1.30183.17369,5.5575,1.47552,6.31239s1.488,4.42543,1.674,5.845,2.23181,4.20938,3.34764,4.39537,3.34778.13607,4.46376.81195,3.34778-.02168,3.34778,1.44307-2.04595,2.76658-2.41781,3.51057.55785,1.41412,1.11584,3.31086.186,4.31454-1.48783,4.12854-6.13757-4.82372-8.36938-5.10859-5.39359-1.40084-6.13757-2.33081.89068-2.18552,1.00325-3.51057c.11272-1.325-1.66333-2.49066-3.00711-4.04673s1.15779-2.6719,0-3.60188-6.17953-.186-8.22534,0S37.99354,499.86445,38.1594,499.03069Z" transform="translate(154.52229 -325.4165)"/><path class="cls-2" d="M88.37569,508.30641c-1.81157.585.93,2.76658,0,4.6264s-2.41781,1.86-3.34778,3.16178,1.13695,4.7215,1.77744,5.05755,2.31432-1.87548,2.87231-1.88569.744-2.79986,2.04581-2.05588,1.116,3.489,2.23181,3.97639c1.116.48722,3.53377-1.93156,4.09176-3.047s3.71963-3.90521,2.4178-5.20718-3.53378-1.17974-5.0216-1.70571-2.6038-2.15363-3.71977-2.92069S90.60749,507.58565,88.37569,508.30641Z" transform="translate(154.52229 -325.4165)"/><path class="cls-2" d="M-30.65548,420.4358c-1.31931.42541-2.97579,1.11584-2.47975,2.23181s-1.4235,3.96772-.09188,4.33971a13.11028,13.11028,0,0,0,4.92748,0c.868-.24809,2.10791-3.34778,1.98386-4.21581S-29.32092,420.00536-30.65548,420.4358Z" transform="translate(154.52229 -325.4165)"/><path class="cls-2" d="M-21.72811,428.12315c-1.23246.597-1.73591,1.85982,0,2.6038s4.7117,1.61187,5.57959,2.6038,2.35585,2.6038,2.85175,2.23181,2.47989-3.34764,1.98386-4.09163a7.67039,7.67039,0,0,0-3.47169-2.2318,11.04962,11.04962,0,0,1-3.71977-1.99715C-19.37226,426.51129-20.72177,427.63579-21.72811,428.12315Z" transform="translate(154.52229 -325.4165)"/><path class="cls-2" d="M-15.77653,436.30654c-1.2512-1.02367-2.47975-.49589-2.72784.744s1.73591,3.71978,2.72784,3.84368a15.31684,15.31684,0,0,0,4.54263-.54023C-10.321,440.02631-14.41261,437.42251-15.77653,436.30654Z" transform="translate(154.52229 -325.4165)"/><path class="cls-2" d="M-5.73333,436.92648c-1.06311-.63784-1.98386,3.3833-1.23987,3.42749s3.59573,2.1521,4.33971,2.772,2.72784.62007,2.72784,0S-3.87337,438.04245-5.73333,436.92648Z" transform="translate(154.52229 -325.4165)"/><path class="cls-2" d="M2.9461,442.18764c-1.10857.035-.372,2.79832.61993,3.41826s3.0997.1239,3.71978.744.1239-1.3105,0-2.08119S5.1779,442.11715,2.9461,442.18764Z" transform="translate(154.52229 -325.4165)"/><path class="cls-2" d="M54.4301,574.99814c-.75056,1.49985-2.17573-.56582-3.02362.922s1.09583,6.94351,0,8.18338c-1.096,1.24-2.5838,0-3.32778,1.24S42.62315,591.047,43.863,591.047s6.44747.99193,9.17532,0a5.25827,5.25827,0,0,1,5.95157,1.488c.99193,1.23987,3.71978,1.48782,5.7035,1.73577s1.98386,1.73591,0,2.72784-.4959,4.95965,1.488,4.7117,6.94351-.96969,9.42327.011S85.276,604.438,86.76382,605.678s7.68749,4.71157,9.42326,4.71157,5.45569.744,6.94351,0c1.488-.744,4.21567-3.71964,6.19953-3.71964s11.65521,0,14.87894,1.48783,6.44748,3.96772,8.18339,3.71977,4.7117.74384,7.43941,2.23181,7.19145,3.71977,11.40726,3.22373,7.9353,1.48783,11.159,1.73592c3.22388.24794,6.69557.49589,8.92737,0s6.44762-.41926,8.18339.28626c1.73591.70567,3.22374,3.68146,4.7117,3.43337s3.22374-2.97579,4.95965-3.47169,6.19953-1.98386,7.68735-1.73591,4.21567,3.22374,6.19953,3.96772,3.96772.27732,5.95158,1.25456,4.7117.97725,6.44762,1.96918c1.73576.99193,8.92722,6.94351,10.41519,6.69556s-.248-2.23181-1.488-3.22374-6.69542-5.45568-6.44747-7.19145a16.21689,16.21689,0,0,1,1.48782-5.70364c.99193-1.73591-.74384-3.96771-1.73577-4.95964s-.99193-4.21567-1.98386-5.2076-6.19953-1.90653-7.68749-1.94512-1.98386,3.185-3.96771,3.681-3.96773,1.23988-5.33151,1.23988a41.12027,41.12027,0,0,1-5.08369-.99193c-.86789-.12405-1.61187-3.89039-2.47976-3.929s-4.95965.78258-5.33164,0,2.23181-4.6264,2.35585-5.49429,3.71963-1.23987,5.45555-.868,4.95964,1.24,5.82753.744.744-2.97579,1.61187-3.47168,4.21581.99193,5.33164.74384,1.36392-1.85982,2.85175-1.98372,4.09176-.744,3.84381-1.612a3.75681,3.75681,0,0,0-3.59573-2.10776c-1.98386,0-6.94351,1.11583-9.67135.86788s-9.29922-.744-10.91109-.99193-2.10789,3.09984-3.47182,3.84382-3.22374,1.23988-4.21567.49589-2.23181-3.96772-3.34778-3.96772-4.09162,1.61187-5.95158.99193-3.84367-2.2318-5.20759-2.97579-2.35586-2.60379-3.96772-2.97579-1.85982,1.23988-2.85175,1.86-2.6038,1.98386-3.47168,1.73577c-.868-.24794-3.84382-.99193-3.47183-1.98386s1.36392-2.85174,0-3.84367-3.96771-2.10791-4.58766-.86789-3.59573,3.84368-4.8356,5.08355.49589,4.46376-1.23988,5.2076-4.33971.24809-6.57152,0-5.70363-1.85981-6.81946-1.98386c-1.116-.1239-2.97579,1.98386-3.84382,1.86-.86789-.12405-4.71156.24795-5.57959,0-.86788-.24809-3.09969-1.116-3.71963-1.98386s-6.44761-.12405-7.43954-.372-3.34764-1.488-3.34764-2.6038c0-1.116.61993-2.6038-.372-3.84368s-4.09177-3.09983-4.95965-4.09176c-.868-.99193-2.10791-.124-2.85175.86789s-1.24,2.60379-2.23195,1.85995-1.61187-3.96772-2.85174-4.33971S89.24371,578.648,88.0037,578.772s-2.23181-1.24-3.47169-2.23194-2.1079-3.47169-3.71977-3.96758-2.85175.99193-4.21566.86788a16.53022,16.53022,0,0,0-4.21567-.124c-.86789.24809.61994,3.22374-.248,3.47182a8.12,8.12,0,0,1-3.47182-.372c-.74385-.248,1.36392-1.73591,0-2.6038s-3.47169.12391-5.45555-.124-3.34778-1.85982-4.95965-2.23181S55.32581,573.20811,54.4301,574.99814Z" transform="translate(154.52229 -325.4165)"/><path class="cls-2" d="M41.75513,586.83138c-1.11584.24794-3.22374,2.1079-2.97565,2.85174s2.47975.744,2.97565.372,1.19848-2.97579,1.90121-3.22373S41.75513,586.83138,41.75513,586.83138Z" transform="translate(154.52229 -325.4165)"/><path class="cls-2" d="M222.2858,614.60527c-1.116-.372-1.98386,2.35585-1.73591,3.34778s1.73591,3.09984,3.22373,3.09984c1.488,0,3.47183-1.36392,4.21567,0s.99193,2.85174,2.1079,3.34764,1.98386,3.34778,1.73591,4.09176,1.61188,1.98386,1.85982,1.36392.248-4.58766,1.61187-5.57959a36.65124,36.65124,0,0,1,5.82754-2.97579c1.73591-.744,2.35585-3.44063,1.24-3.95219s-4.09176-1.75144-5.33164-2.24733-3.09983-3.34778-4.3397-3.34778-3.22375,3.47168-4.09177,3.84367S222.2858,614.60527,222.2858,614.60527Z" transform="translate(154.52229 -325.4165)"/><path class="cls-2" d="M233.32093,589.23911c-1.55327.33647-1.98386,2.79986-2.23181,3.17185s2.6038,1.46224,3.34778,1.6611,2.35585-.91711,2.72771-1.537a12.0015,12.0015,0,0,1,2.72784-2.35585C240.38848,589.93121,237.66064,588.29906,233.32093,589.23911Z" transform="translate(154.52229 -325.4165)"/><path class="cls-2" d="M183.60067,568.3567c-1.87268-.11705-2.47989,2.39417-2.35585,3.057s2.23181,1.03472,3.22374.91068S185.58453,568.48074,183.60067,568.3567Z" transform="translate(154.52229 -325.4165)"/><path class="cls-2" d="M239.27251,624.77252c-1.23988.372-1.48783,1.98386-1.36392,2.85188s2.1079.4959,2.6038,0S239.27251,624.77252,239.27251,624.77252Z" transform="translate(154.52229 -325.4165)"/><path class="cls-2" d="M245.348,627.00447c-.79335.55533.62008,1.61186,1.86,2.2318s1.85981,1.08018,5.33165.788c3.47167-.29214,4.71155-.24278,5.45553-1.87926s.86789-4.36446,2.23182-5.23235,2.2318-5.0525,1.23987-5.56406-4.09163-1.75144-4.95965-2.37138-1.61187-2.2318-2.35571-1.98386c-.744.24809-1.488,4.33971-2.6038,4.33971-1.116,0-2.4799-1.08492-2.97579.01553s.61994,5.06817.99193,6.06.37186,3.00054-.24809,3.05019S246.588,626.13644,245.348,627.00447Z" transform="translate(154.52229 -325.4165)"/><path class="cls-2" d="M264.44261,623.28469c-.898.67392-2.35585,2.85175-1.73592,3.84368.62008.99193-1.625,4.46375-.8125,4.83561a32.72085,32.72085,0,0,0,6.3921,1.116c1.86.124,4.83574,1.116,6.19966,1.116s2.7277-1.96889,3.96758-2.72029,2.72784-1.84723,4.21581-1.3614,3.47168.13411,5.08356,0a5.38193,5.38193,0,0,0,3.96771-2.73791c.372-1.11584-.372-3.47169-1.36392-3.34764-.99193.1239-3.34778,2.25642-4.71157,2.43011s-3.34778.04964-4.09176-.5703.372-2.72784-1.116-3.47168-2.87832-2.35585-3.671-2.85189-2.40451.91208-3.1485,1.32393-2.72769-1.69592-3.59573-2.06791C269.15431,618.44909,265.49369,622.496,264.44261,623.28469Z" transform="translate(154.52229 -325.4165)"/><path class="cls-2" d="M281.55336,614.23328c-1.66347,0-2.35585,3.34778-.86788,3.84382s4.8356.99193,5.82753,1.85981,3.59573,1.9682,4.7117,1.604,2.97565.75181,3.71963,1.4958-1.61186,5.95144,0,6.19952,4.21567.29732,5.33165-1.09122,2.10776-3.37253,3.47168-3.37253,4.09176,1.36392,5.2076.99193,1.488-2.10776,1.488-2.85175-2.85174-.94774-3.34778-2.02385-.99192-3.92773-2.23181-4.29972-3.71977,2.05966-5.08369,2.20776c-1.36377.14809-2.35571-.71979-3.96758-1.46378s-3.09983-.2169-4.58766.01553-1.36392-1.37945-2.35584-2.12343-2.9758-3.47168-3.96773-2.97565S283.04119,614.23328,281.55336,614.23328Z" transform="translate(154.52229 -325.4165)"/><path class="cls-2" d="M314.163,620.78117c-.99193-.59631-2.60394,5.628-1.73591,5.67762s4.83561-2.92615,4.83561-3.794S314.163,620.78117,314.163,620.78117Z" transform="translate(154.52229 -325.4165)"/><path class="cls-2" d="M307.848,613.48944c-1.17582.63308-1.116,3.09969,0,3.09969s3.71964-1.36392,3.47169-1.54977C311.0717,614.85336,309.45984,612.62141,307.848,613.48944Z" transform="translate(154.52229 -325.4165)"/><path class="cls-2" d="M309.16224,638.53549c-1.01053.645-3.55461.24809-3.92661,1.24s1.14968,3.22374,1.7527,3.59573,1.513,2.10776,2.17391,2.7277,4.38068,1.36392,5.55862.868,3.28582-1.36392,3.90576-.744,2.2318,4.58765,3.96772,5.33164,4.21566.24794,5.33164,1.48782,2.47975,2.97579,4.46361,2.85175a49.92622,49.92622,0,0,0,5.70363-.61994c1.11584-.248,1.11584-1.98386,2.23181-2.6038s2.23181-1.98386,1.11583-2.85175c-1.11583-.86788-4.21566-2.97579-4.58765-3.84367-.372-.868-1.36392-4.21567-2.47975-4.09177s-4.09177.61994-4.58767.24795-.86788-2.7277-2.2318-3.59573-3.31534-2.60379-4.01359-2.60379-1.938,2.35585-2.92992,2.47989a39.12124,39.12124,0,0,1-5.88962-.744A7.70291,7.70291,0,0,0,309.16224,638.53549Z" transform="translate(154.52229 -325.4165)"/><path class="cls-2" d="M325.88,628.14505a3.81438,3.81438,0,0,1-4.46362-1.64865c-.372-.85586-2.4178-4.0333-.93-4.95545,1.488-.92215,4.83561-1.03221,6.13758-2.74406s1.85981-3.19969,4.27762-3.01369,8.36938-.61994,9.67135.80593,5.20759,4.45984,6.50956,4.15176,4.09163,3.60873,6.32343,2.8593,2.97579-2.06693,4.83575-2.05924,6.32343.1783,7.25341,0,1.85981,2.43668,3.53377,2.05924,2.97581-2.98139,4.64961-3.91122c1.67383-.93,2.97579.26179,4.27762-.89208s4.09177.14809,4.09177,1.07807-1.67382,2.80084-3.90577,3.72523-3.90563,3.71418-6.50942,3.71418-5.3936-.78119-6.69557-.85558-3.71963,3.11242-5.76558,2.914-9.29922.38444-11.15918,0c-1.85981-.38457-1.85981.37969-3.53362.74147-1.674.36192-3.1618-1.51062-5.02176-1.96918C337.59719,627.68636,325.88,628.14505,325.88,628.14505Z" transform="translate(154.52229 -325.4165)"/><path class="cls-2" d="M380.74593,613.28974c-2.2072.33885-3.34764,1.81157-3.34764,2.43151s3.34764,1.48782,4.64961.86788S381.687,613.14542,380.74593,613.28974Z" transform="translate(154.52229 -325.4165)"/><path class="cls-2" d="M387.25549,615.72125c-1.54516,1.1824-2.78979,3.03774-2.60379,3.96772.186.92983,2.60379-1.04018,3.90576-.89208s2.6038.59588,3.34764,0a2.39651,2.39651,0,0,0-.74384-3.85738C389.11531,613.92338,388.14617,615.03978,387.25549,615.72125Z" transform="translate(154.52229 -325.4165)"/><path class="cls-2" d="M388.60683,620.74089c-1.24.10251-.42136,3.34974,1.06647,4.03163s5.57958-.60889,6.13757-1.17233,4.64961-5.84306,3.71978-6.36511-3.71978.85586-4.46376,1.56181S391.63214,620.491,388.60683,620.74089Z" transform="translate(154.52229 -325.4165)"/><path class="cls-2" d="M406.09908,621.26377a7.85276,7.85276,0,0,0,2.62647-3.65208c.30373-.88719-2.50872-2.43361-3.41772-2.64967s-5.196,6.56411-4.49354,6.809S405.07988,621.91728,406.09908,621.26377Z" transform="translate(154.52229 -325.4165)"/><path class="cls-2" d="M415.62234,614.30474c-1.16968.92956-5.2076,5.77412-3.53364,6.21s4.83561.68007,5.95158,0,2.97579-1.90611,3.90563-1.944,3.16178.96788,3.90577,0,.74384-4.84959,0-5.51246S417.50677,612.80713,415.62234,614.30474Z" transform="translate(154.52229 -325.4165)"/><path class="cls-2" d="M420.361,630.16038c-2.79679,1.4179-7.4394,3.66355-9.67121,4.03554s-5.76558.4959-7.06755,1.73578.372,3.28582-1.67382,3.84381a37.85375,37.85375,0,0,0-6.69557,2.97565c-1.30182.744-1.34909,3.53378-1.41846,5.39373a9.66039,9.66039,0,0,1-1.25386,4.64961c-.86145,1.67382-.35059,5.3936,1.25386,5.2076s4.01709-1.59928,6.90254-2.10161,2.40214-.68818,5.52658-.87418a10.28031,10.28031,0,0,0,7.40207-4.46361c1.30183-2.046,7.4394-9.11337,9.11322-10.22934s4.27777-2.7898,6.88156-3.16165,6.88142-1.302,8.18339-2.97579,5.39359-3.79333,6.50942-4.03554,2.7898,1.17219,4.83575,0,4.83562-2.5101,6.88142-3.701,5.95157-2.87049,7.4394-3.51854,2.60394-2.19307,1.488-3.00138-3.90576-.91865-4.64961-1.14254-.744-1.82849-2.23194-1.67718-6.50943,3.60384-8.36939,3.92353c-1.85981.31955-3.71963-.36626-5.39359-.30235s-4.64961,1.12576-7.06741,1.15289-6.53935,1.32309-8.47734,1.047c-1.93784-.27605-5.84362,2.66365-7.14545,3.51854S421.22934,629.72014,420.361,630.16038Z" transform="translate(154.52229 -325.4165)"/><path class="cls-2" d="M388.60683,657.07212c-1.0908-.4503-.79335,3.71977-1.72333,4.64975a12.03938,12.03938,0,0,1-4.8356,2.6038c-1.67382.372-2.41781,3.16179-2.97579,4.09162-.558.93,2.26.558,3.4549,0s2.86867-2.4178,4.35649-2.60379,3.71977-2.22342,4.27776-2.7856S389.9583,657.63011,388.60683,657.07212Z" transform="translate(154.52229 -325.4165)"/><path class="cls-2" d="M448.445,610.38961c-2.0268.33507-2.97579.93-5.02161,0s-5.0216.558-6.32357,0,.186-3.71964,1.302-4.83561,3.90563.93,5.3936,0c1.48782-.93,2.04581-2.6038,4.64961-3.16179s5.02161,1.302,6.50957,1.85982,2.41779,2.40046.92983,2.31614C454.39656,606.484,450.24592,610.09187,448.445,610.38961Z" transform="translate(154.52229 -325.4165)"/><path class="cls-2" d="M476.5289,612.75189c-1.6938-.18194-2.78979-.10642-3.53378.53253s1.116,2.18888,1.76682,2.43683c.651.24794,4.18476.54791,4.92875,1.51383s2.9758.33605,3.71963,0-.186-1.72472-1.67381-2.70421A13.83747,13.83747,0,0,0,476.5289,612.75189Z" transform="translate(154.52229 -325.4165)"/><path class="cls-2" d="M467.22954,605.554c-1.48782-.372.186-2.62422,0-3.265s1.674-.10321,2.23181,0,1.116,2.707,0,3.265A2.69447,2.69447,0,0,1,467.22954,605.554Z" transform="translate(154.52229 -325.4165)"/><path class="cls-2" d="M495.68547,614.53087c-1.674.32249-1.488,2.58059-1.488,3.21829s3.16179-.07985,4.27776,0S495.68547,614.53087,495.68547,614.53087Z" transform="translate(154.52229 -325.4165)"/><path class="cls-2" d="M510.00644,606.58844c-1.54028.0614-.558,3.68174-.93,4.29944s1.48781,1.80849,2.60378,1.864,3.90577-1.94135,3.90577-3.08165C515.586,608.52979,512.05224,606.50705,510.00644,606.58844Z" transform="translate(154.52229 -325.4165)"/><path class="cls-2" d="M534.92858,603.891c-1.05808.834-2.6038-.83544-2.046-1.911s9.67135-6.28316,9.67135-5.16732S535.85843,603.15773,534.92858,603.891Z" transform="translate(154.52229 -325.4165)"/><path class="cls-2" d="M547.63753,593.155c-.87362-.07286-1.48781,2.97579-1.8598,4.21566s-2.72786,4.25888-3.71979,4.60934c-.99193.35031-2.60379,2.08609-2.60379,2.95411s-.248,2.97579-.74385,3.22374a3.65965,3.65965,0,0,0-1.05094,2.73008c.18292.7416,4.02673,2.84951,4.89462,2.35361s2.10778-4.5878,2.47977-5.57959,2.10789-3.24709,3.47181-3.54538.99193-4.88609.61994-5.506,1.23987-3.47168,2.35585-3.34778a13.168,13.168,0,0,0,4.21568-.61994C556.19291,594.39482,549.1255,593.27885,547.63753,593.155Z" transform="translate(154.52229 -325.4165)"/><path class="cls-2" d="M536.85035,613.31617c-1.13863.49631-2.23181,3.81808-2.97579,3.79347s-1.84765,3.07522-1.10982,3.32331,4.82959-1.77171,5.57357-2.68379S537.45322,613.0534,536.85035,613.31617Z" transform="translate(154.52229 -325.4165)"/><path class="cls-2" d="M546.67637,589.31113c-1.28715.13929-.96131-3.96758,0-4.33957.96116-.372,3.06907,1.23988,2.82112,2.16986A3.77382,3.77382,0,0,1,546.67637,589.31113Z" transform="translate(154.52229 -325.4165)"/><path class="cls-2" d="M160.91033,406.17679c-2.04315,1.29288-1.67382,2.97579-1.116,4.64961s.80285,4.46376.3085,4.83575-3.65614-1.488-4.77212-1.116-1.48782,3.16178-1.116,3.90576,3.20836,1.30183,3.278,2.41781c.06978,1.11583-3.185,3.71963-3.41743,4.27761s-2.27837,1.488-3.02221,2.41781.37184,3.34778,0,3.90576c-.372.558,4.38767,2.23181,4.79756,2.6038s-1.07793,2.23181-2.00777,2.04582-3.71977-3.53364-5.76559-4.64962-4.64975-.744-6.13757-1.488c-1.488-.74384-1.674-2.78965-3.34778-2.6038-1.67382.186-4.46362,1.116-6.13758.744s-1.85981-.186-3.16178-1.67382-2.7898-.558-3.71963-1.674c-.93-1.11583-.186-2.96264-2.23181-3.6202s-3.90577,1.2024-4.83575,3.06236c-.92983,1.85981-2.2318,5.76544-3.90562,6.88141a10.05589,10.05589,0,0,0-3.71978,5.03461c-.558,1.84695-1.48782,4.07876,0,4.82274s1.85982,3.53364,1.302,3.71963-.744,2.97579-.558,4.27776.186,4.09162.372,5.0216,2.78979,2.7505,3.71963,2.58422,1.488,3.77278,1.488,5.151a12.90348,12.90348,0,0,1-1.488,5.15082c-.74384,1.249.186,3.29478.558,3.85277s2.60379-1.488,3.71977,0,1.30183,3.34778,2.23181,4.64961,3.16178,2.78979,2.4178,3.53377-2.4178,0-2.78979,1.85982a7.40508,7.40508,0,0,0,1.116,4.64961c.372.558,4.27762-1.11583,5.39359-2.04581s2.4178-2.97579,3.16179-2.23181c.74384.744,2.78979,4.9342,2.4178,6.93078s-2.23181,4.0424-3.16179,5.34437.186,2.4178,1.85982,3.34764,3.10235,3.53378,2.853,5.2076-.06838,3.57992-.43772,5.78866.7465,2.39473,1.86248,3.69669c1.11583,1.302-.558,4.64961.186,5.57959s2.7898.93,4.27762,0c1.488-.93,3.34778-2.632,4.09176-2.52492s-.372,3.6409.92984,4.01275,2.7898-.55785,4.46376,0,5.0216-.37185,5.39359-1.11584,2.23181-3.004,3.16178-2.89691,1.85982,2.89691,2.6038,2.71092,2.97579-5.0216,3.90563-5.2076.372,4.09162,1.302,5.0216,2.4178,3.61713,2.04581,4.2263-2.04581,5.25906-.93,5.44491c1.116.186,4.64975-2.78965,6.13758-2.78965s4.92874,1.48782,6.742,1.48782a10.48132,10.48132,0,0,0,5.71915-2.2318,15.4032,15.4032,0,0,1,3.71964-1.91128c.558-.32053-2.04582-2.55248-1.11584-3.29632a4.7385,4.7385,0,0,1,4.46362,0c1.116.74384,1.67382,4.27762,2.97579,4.27762s4.46361-1.21848,5.20759-.9813.372,5.2757,1.302,5.4533,2.9758-1.68221,4.09163-2.42619,3.71977-2.52045,4.46361-3.02711-1.30183,3.5851,0,3.77109,3.53378-.558,4.09176.372,1.85982,3.34779,2.97579,3.34779,1.67382,2.78979,1.67382,5.20759-1.48782,5.2076,0,5.57959,4.64975-2.04581,7.25355-2.23181,4.09163-2.97579,5.5796-3.71977a24.24107,24.24107,0,0,1,6.13742-1.302c.558,0,5.02174-4.09162,6.69557-5.95144a57.89332,57.89332,0,0,0,4.46361-5.07306c1.116-1.6225-1.11583-4.41229-1.11583-5.34227s1.67382,0,2.97579-.186c1.30182-.18585,1.48782-2.78979,1.48782-3.90562a46.47985,46.47985,0,0,1,.93-5.3936c.186-.93,1.67382.92984,2.6038,0s1.85982-3.53377,1.48783-4.8356-1.30184-1.116-2.7898-1.488-2.97579-1.67382-2.7898-2.2318,2.41795,0,2.41795-1.302a17.00922,17.00922,0,0,0-1.302-4.64961,3.09823,3.09823,0,0,1,1.85981-3.85641,14.09935,14.09935,0,0,0,4.27777-3.025,5.77021,5.77021,0,0,0,1.67381-4.09176c0-1.30183.186-3.34779,1.302-1.30183s1.48783,4.64961,2.6038,4.46361.558-3.16178,1.67382-5.0216,2.23181-1.86,3.71977-3.16179,1.85982-2.2318,3.16179-2.04581,3.71963.55785,3.71963-.186c0-.744-.92984-3.16179-1.30183-4.83575s1.11583-3.90563,0-4.8356-1.116-2.04582-1.488-2.97579.186-5.95158,1.116-7.9974,3.34778-5.57958,4.09162-7.2534.93-4.09177,2.046-4.27776,3.53365.93,5.5796,1.302a10.36464,10.36464,0,0,0,5.57958-.558c1.11583-.558,1.67382,1.302,2.97579,1.116s3.71963.186,4.8356,0,2.23181-1.488,2.97579-2.046.372-1.85981-1.302-3.34764-3.90563-1.302-5.51749-2.41794c-1.612-1.11584-1.36393-2.85175-2.72785-3.59573a35.20548,35.20548,0,0,1-4.21567-2.7277c-1.116-.868,0-1.98386-1.36392-2.35585a44.92014,44.92014,0,0,1-5.95158-3.09984,14.3225,14.3225,0,0,1-3.09969-2.97579c-.496-.61993,1.85981-2.10776,2.60379-2.2318a5.51634,5.51634,0,0,0,3.0997-1.85982c.61995-.99193,1.23988-2.35585.99194-3.22374s-1.98387-1.73591-3.22375-2.1079-.372-3.47168-1.36392-4.33971-2.6038-.61994-3.22374-.86789-2.6038.372-2.97579,0,2.35586-1.23987,2.6038-1.73591c.248-.49589-.61993-1.73577-1.116-2.85175s-1.73577-1.36392-2.6038-1.61186a24.61464,24.61464,0,0,1-3.22374-1.116c-.74384-.37185,1.23988-.74384,1.61187-1.61187.372-.86788,3.34778-2.10776,2.72784-2.7277s-3.47168-.61994-4.46361-1.73591a11.66634,11.66634,0,0,1-2.23195-3.22374c-.37185-.99193.868-.868,2.10791-.61994s2.35585,2.6038,3.09983,1.98386,1.85981,0,3.0997-.124,1.488-1.46531,1.98385-2.03462c.496-.56918,1.48783,1.29064,2.23181.54679a2.78035,2.78035,0,0,0,.24795-3.34778c-.74385-.99193-2.72771-2.72784-2.47976-3.09983s2.47976.744,2.97579,0-.496-2.47975-.86788-2.97579a38.602,38.602,0,0,0-3.09984-2.47975c-.744-.61994-.49589-2.4799.496-2.23181s3.59571,3.34764,4.71155,3.71963,3.47182.868,4.33971,0a5.79421,5.79421,0,0,1,2.97579-1.61187c1.36392-.372,3.34778.496,4.46362-.248s3.59572-1.85981,3.71977-2.85174-1.85981-1.36392-2.35586-1.61187c-.49589-.24809-1.85981,1.23988-2.2318.86789s1.85981-2.10791,1.11583-2.47976-3.59573-1.73591-4.95951-1.24-1.488-.99193-2.35585-1.36392-1.61187-2.2318-.868-3.09969c.744-.86789,2.85189-3.09983,4.46376-2.47989s2.23181,2.72784,3.84368,2.60393,4.58765.61994,5.82753-.24808,2.60381-2.72771,3.47182-3.0997,2.6038-.61994,3.59573-1.116-.124-2.85175,0-4.09162c.12391-1.24-1.36392-1.488-2.85188-1.73592s-3.96758.61994-4.83561,0a5.56519,5.56519,0,0,1-2.23181-2.47975c-.99193-1.73591-1.48781-3.09983-3.34777-3.22388-1.85982-.1239-5.57959,0-6.19953-.74384s-.744-2.85189-1.48782-3.71977c-.744-.86789-2.232-2.35585-3.09984-2.35585s-2.97579,3.47182-4.09162,3.59572c-1.116.12405-3.09983.248-3.71978-.1239s0-3.47182,0-4.21581,1.85982-1.98386,2.6038-2.47975-.24795-2.6038-1.36392-3.59573a9.467,9.467,0,0,1-2.6038-4.58766c-.248-1.488-.99193-1.36392-1.61187-1.23987-.61993.1239-.372,2.85174-1.61186,3.09969s-1.116-1.73577-1.85982-1.98386.49589-4.71156-.124-5.2076-3.22374,0-3.59573.744-.744,5.08356-1.48783,5.33165a10.24985,10.24985,0,0,1-2.72784.99193c-.868,0-.372-2.6038-.372-3.22388s2.47975-1.85982,1.73591-2.7277-2.1079-2.01113-3.47182-1.31554-2.35585,3.79529-2.6038,5.03517-.61994,4.09176-1.73577,4.58766-3.71978,3.22387-4.95965,3.59572c-1.24.372-2.72785,4.83575-3.22388,5.45569s-1.98372-.248-2.97565.49589c-.99193.744-.62008,4.09177-.24809,5.33164a4.40633,4.40633,0,0,1-1.11583,3.96772c-.868.61994-1.61186.248-2.85189,0a8.26739,8.26739,0,0,0-4.33957.4959c-.868.496-.868,3.84381-1.73591,4.21581-.86789.37185.372,1.98386.86789,2.10776s2.97579,2.23181,2.35585,2.72784-1.85982,2.85175-3.0997,2.72784-1.612-.99193-3.22387-1.488-3.0997-2.6038-4.58766-2.35585-5.20759,4.21566-6.44748,5.08369-3.59572,2.47976-4.7117,2.35585c-1.11583-.124-1.23987.86789-2.97565,1.48783s-5.08369.99193-5.70363,1.73591-.124,4.09162-.124,5.57959c0,1.48782-2.10776,3.47168-3.22373,3.96772-1.11584.49589-4.71171,2.85174-5.5796,4.09162s-4.09162,3.22374-4.95965,3.96772-.74384,3.59573-.86788,4.7117-1.116,3.22374-2.10791,3.34764c-.99193.12405-3.09969,1.24-4.33957,1.36392-1.24.12405-1.24,1.36392-3.09983,2.10791s-8.55538,2.47975-9.79525,2.10776-.86789-1.23988-2.6038-.99193S161.8459,405.58482,160.91033,406.17679Z" transform="translate(154.52229 -325.4165)"/><path class="cls-2" d="M254.08936,522.23217c-.93655,1.11038-5.39359,6.32357-5.57958,6.88156-.186.55784-.92984,7.25341,0,7.99739s3.16178-.558,3.90576-1.302,2.41781-3.53378,3.16179-4.27762.92984-4.27776,0-4.83575S255.27232,520.82979,254.08936,522.23217Z" transform="translate(154.52229 -325.4165)"/><path class="cls-2" d="M93.02544,384.39084c-.186-1.09039,4.27761-4.06618,5.39359-4.252,1.11583-.186,2.97579,3.2966,3.34764,4.252s.186,6.34916-1.11583,6.16316C99.34887,390.368,93.02544,384.39084,93.02544,384.39084Z" transform="translate(154.52229 -325.4165)"/><path class="cls-2" d="M108.46223,403.573c-.558.372,2.6038,2.97579,3.34778,2.7898s.558-5.0216,0-5.2076S108.46223,403.573,108.46223,403.573Z" transform="translate(154.52229 -325.4165)"/><path class="cls-2" d="M110.07662,411.38439c-.31242.744-.63141,4.09176.272,4.46375s5.739-1.488,5.925-2.23194-1.11584-3.66635-2.04582-3.78606S110.07662,411.38439,110.07662,411.38439Z" transform="translate(154.52229 -325.4165)"/><path class="cls-2" d="M333.87742,443.0021c-1.6762-.16348-4.46362-.372-5.57959,0s-8.55524,11.15918-8.92723,12.089,2.6038,2.41794,2.4178,3.34778-1.92428,2.2318-2.4501,2.97579,1.0838,8.18338,0,8.92737-3.31547,5.0216-4.05945,5.20759-4.09164,2.23181-4.27763,3.53378,0,16.36677,0,17.48261-2.4178,1.116-3.34778,1.86-1.116,6.50943-1.674,7.25341-6.69542,4.09176-6.69542,5.0216-1.302,3.16179,0,3.34778c1.30182.186,3.34778-1.30183,3.71977,0s-1.302,4.46362-1.86,5.2076-1.11583,3.34778,0,4.46375,1.86,4.46362,2.7898,4.64961,4.09176-1.488,5.20759-1.85981a20.70011,20.70011,0,0,1,4.27776-.744c.744,0-1.674,2.96278-1.116,3.89919a33.02752,33.02752,0,0,0,3.98841,4.84218c1.21918,1.11583-.66133,7.99739,0,9.29922s-1.7566,5.2076-1.94259,7.06755-3.90564,8.55538-3.34765,9.67121c.55784,1.116,2.6038,4.64975,4.27763,5.3936s3.71976,3.90576,4.83559,3.34778,2.23195-3.71977,3.53378-4.09163a18.99718,18.99718,0,0,1,5.76558-.558c1.67382.186,3.71977,2.97579,4.46362,2.4178s-2.04581-6.69556-2.41781-7.99739-.92983-6.32357,0-7.6254c.93-1.302,3.59881-4.27776,2.54339-6.13758s-2.35739-5.0216-3.10137-6.69556,0-4.8356,0-5.95158,1.674-1.68668,1.85995-2.98222a34.967,34.967,0,0,0,0-7.668c-.372-2.18272-4.27776-3.85654-4.27776-5.15851s2.97579-1.85982,3.90577-2.7898,1.85982-3.53377,2.97579-4.27762,5.57959.186,6.88143.186-.74385,3.53364,0,4.09162a19.11818,19.11818,0,0,1,2.78978,2.6038c.372.558.744,4.36558,0,5.34451-.74383.97906-4.27762,1.78122-4.27762,2.961,0,1.17989,5.3936,6.01549,7.25341,7.13147,1.86,1.11583,2.97579-.93,4.09177,0s3.71963,5.57958,4.09162,6.69542-2.7898,5.2076-2.4178,6.32357,2.60379,5.2076,4.09176,5.95158a14.0844,14.0844,0,0,0,6.69542.55784c1.116-.37185-1.67382-5.95143,0-6.50942s6.69557-1.488,8.55538-2.04581,4.09176,2.04581,5.20759,1.30183,2.97579-6.50957,2.41781-7.8114-3.16165-.93-5.2076-1.488-2.6038-3.16165-3.16178-4.27762-3.16165-2.23181-3.90563-2.7898.372-3.71977.93-5.20759c.55785-1.488,1.48783-5.3936.55785-6.88156s-.55785-1.30183-2.7898-2.97579-2.7898-5.17068-3.90563-6.863-3.71977-3.55223-5.39359-4.85406-6.69556-5.57959-6.88156-6.13758,5.39359,1.30183,5.95158.744,3.34778-4.46375,4.64961-5.20759c1.302-.744,5.02174,0,6.50957-.93s10.0432-11.15918,11.15917-12.08916c1.116-.92983.186-2.87747-.93-3.76354s-5.76558.14222-7.25339,0a26.83885,26.83885,0,0,0-3.90578,0c-.74384.04391-.74384,3.76354-2.7898,4.13554-2.04581.372-4.8356.186-5.57958-.558s-3.53364-2.4178-4.83561-2.04581-6.50956,7.49716-7.06741,7.46835.92984,2.94684.186,3.31883a30.90142,30.90142,0,0,1-7.30585.558c-1.06353-.186-2.3655-2.23181-3.10948-2.4178s.744-4.46376.372-5.0216c-.372-.558-4.8356-2.23195-6.69542-2.7898s-2.78979-3.34778-2.78979-5.39359-2.046-6.13758-1.488-7.62554,3.53378-7.6254,5.2076-9.48522,4.27776-4.46375,6.13757-3.90576,4.09177,3.53377,6.50958,2.78979,5.57958-1.48783,7.2534-2.04581,2.97579-2.23181,4.27776-1.488,3.34764,3.16179,5.0216,2.7898,4.09162-2.04581,5.39359-2.23181,13.577.372,16.18078.744,4.8356,3.34778,7.6254,3.53378a84.76178,84.76178,0,0,0,10.22935-.558c2.0458-.186,3.16163-1.85981,5.76543-2.23181s4.83574-.558,8.36938-5.0216,7.06755-7.62554,7.99739-9.11336.186-4.28126.93-4.74443,2.41781-.09118,2.9758-1.02116.93-4.09176,0-4.8356-5.20761-1.116-6.13759-1.488-2.4178,5.57959-3.16178,6.13758-3.71963.74049-4.83561,1.20715,2.23181,2.88461,2.04581,3.62846c-.18585.744-3.34764-.558-4.09162-.186s-4.64961,5.2076-5.95158,5.95158-4.4636,1.86-5.20758,1.488-3.90578-1.488-5.39361-2.046-7.4394-.74384-9.11336-.92984-2.4178,2.97579-3.34778,2.7898-7.8114-1.488-8.92722-1.86c-1.116-.37185-1.674-2.23181-2.60381-2.4178s-11.71716-.372-13.577-.558a25.6391,25.6391,0,0,1-7.25355-2.78979c-1.11583-.74384-4.27761-4.09512-5.95157-3.07047a28.23845,28.23845,0,0,0-5.02161,4.74443c-.372.558.186,4.27762.186,4.27762S334.75384,443.08755,333.87742,443.0021Z" transform="translate(154.52229 -325.4165)"/><path class="cls-2" d="M379.63009,469.78407c-1.40279.35073.12391,2.47989,1.23988,3.22374a9.047,9.047,0,0,1,2.47976,1.85995c.372.61994-.4959,1.61187,0,2.35571s2.23194.124,3.22387.62008,2.23181,1.85982,4.58766.86789,1.61187-7.56345.99193-8.30743S381.614,469.28817,379.63009,469.78407Z" transform="translate(154.52229 -325.4165)"/><path class="cls-2" d="M381.366,480.8192c-1.26281.93026-4.71172,6.57152-4.21582,7.19146s3.71977,1.73591,4.21582,1.488c.49588-.24794,2.23179-4.05638,2.97564-4.322s3.59574-3.24149,2.97579-3.61349S382.14509,480.24527,381.366,480.8192Z" transform="translate(154.52229 -325.4165)"/><path class="cls-2" d="M392.49791,481.43928c-1.14953.59519-4.16475,2.95453-3.63223,3.647s2.76421,2.92433,3.63223,2.80042,3.34779-2.10286,2.9758-3.22136S393.48117,480.9301,392.49791,481.43928Z" transform="translate(154.52229 -325.4165)"/><path class="cls-2" d="M383.9698,534.25923c-1.116.372-1.61186,4.41747-.62007,5.30857s4.33971-.59687,4.83574-1.09276c.49591-.496.49591-3.96772,0-4.21581A23.7529,23.7529,0,0,0,383.9698,534.25923Z" transform="translate(154.52229 -325.4165)"/><path class="cls-2" d="M382.81579,542.93865c-.70594.372-3.30973,6.07549-3.92968,6.69556s.744,3.71964.99194,4.95951c.24794,1.24-.19607,3.96772-1.15192,4.71171s-4.17973,2.47975-4.67562,3.09983.24794,3.59573.49589,4.21567,2.77092,1.23987,3.80326,1.36392c1.03249.1239,2.64437-.496,2.76826-1.36392.124-.868-.86788-3.71978,0-4.09177s3.80579.372,4.56864-.372c.763-.74384,1.011-3.59573,1.135-4.21566s-4.1677-.24795-4.00576-.99193-.41-3.84368,0-4.58766,4.74974-3.84368,4.99769-4.58766S382.81579,542.93865,382.81579,542.93865Z" transform="translate(154.52229 -325.4165)"/><path class="cls-2" d="M375.41443,546.41034c.83166,0,1.61187,6.8196,1.11583,7.43954-.49589.61994-1.8215.88369-2.64659,1.6197s-.57715,5.19977-1.817,5.69566-2.47989-1.61187-2.97579-1.61187-2.23181.99193-2.72785.744c-.49589-.248,1.61187-4.32391,1.86-4.82778s-.744-4.71953-.24809-5.46351C368.47092,549.26222,374.67044,546.41034,375.41443,546.41034Z" transform="translate(154.52229 -325.4165)"/><path class="cls-2" d="M392.77313,557.56951c-.99724.82552-.99193,3.127-.99193,3.67139s3.22374-.04853,3.71963,0S393.35321,557.08942,392.77313,557.56951Z" transform="translate(154.52229 -325.4165)"/><path class="cls-2" d="M362.60618,555.46958c-1.03108.1453-2.19473,1.89953-2.93859,2.06176s-1.61187,2.022-1.116,2.766,3.64551,4.33971,4.05456,4.21566a2.95,2.95,0,0,0,1.525-1.73591C364.25525,562.03327,363.43128,555.35337,362.60618,555.46958Z" transform="translate(154.52229 -325.4165)"/><path class="cls-2" d="M332.63754,571.45653c.51058-.9283,2.97579-.496,3.71977,0s.61994,5.33164,0,6.81947a6.36458,6.36458,0,0,1-2.23181,2.47989c-.24808.24795-.372,3.47169-.99193,3.59573S331.27362,573.93629,332.63754,571.45653Z" transform="translate(154.52229 -325.4165)"/><path class="cls-2" d="M426.507,491.60653c-.77475-1.33316-4.96805,1.11583-6.45588.99193a44.003,44.003,0,0,1-4.83574-.52233c-.74385-.22166-2.97579-2.38284-4.33958-2.54213s-3.47181,1.45245-4.09176,2.07253.12405,7.4394.86789,7.4394,4.2158.372,5.57959,0,3.34779-2.1079,4.46376-2.35585c1.11582-.248,6.81946-1.23988,7.81138-1.73591A2.9302,2.9302,0,0,0,426.507,491.60653Z" transform="translate(154.52229 -325.4165)"/><path class="cls-2" d="M429.72234,492.72236c-.48848.19537-.61994,3.71977,0,3.96772a11.98,11.98,0,0,0,4.7117,0c1.11584-.372,1.73578.60693,2.72771.55141s2.97579-1.17135,3.96772-1.66738,4.95964.05775,5.57958-.591,0-2.13672-1.61187-2.26076-8.05934.248-9.17531,0S430.96222,492.22647,429.72234,492.72236Z" transform="translate(154.52229 -325.4165)"/><path class="cls-2" d="M438.12544,499.21123c-1.21164.57868-.83965,4.29832-.71561,4.67031s2.10777,1.36392,3.0997,1.98386,2.2318-.372,2.47989-.99193-1.116-5.70364-1.612-6.19953C440.88152,498.1779,438.12544,499.21123,438.12544,499.21123Z" transform="translate(154.52229 -325.4165)"/><path class="cls-2" d="M472.12724,483.919a15.09919,15.09919,0,0,0-5.33164,3.97261c-.744,1.11094.124,3.34289,1.23988,3.83878s3.34778,1.41119,4.95964.70567c1.61187-.70567,6.07563-1.07766,6.81947-1.20156s3.22374-1.41721,2.97579-1.70054S474.30228,483.08415,472.12724,483.919Z" transform="translate(154.52229 -325.4165)"/><path class="cls-2" d="M468.15952,479.95132c-1.04228.18949-2.29068,2.97579-1.64124,3.22373s3.749-1.73577,4.493-1.61187c.744.12405,2.10792-.86788,1.73593-1.61186S469.52344,479.70337,468.15952,479.95132Z" transform="translate(154.52229 -325.4165)"/><path class="cls-2" d="M481.92251,436.55449c1.00394-.695-2.10792-1.98372-1.23989-3.0997s2.85174-1.36392,4.33957-2.47989,3.09983-3.09969,4.46375-3.47168a3.168,3.168,0,0,1,3.22374,1.61186c.49589.86789,1.116,6.07563,1.23988,7.43941s-2.10775,2.1079-3.34779,2.1079c-1.23987,0-3.84367,2.23181-5.20759,2.72784s-3.59573,1.48783-4.09163,2.10777.90257,2.35585,1.50518,2.6038a7.06562,7.06562,0,0,0,2.8344,0c1.24-.12391,4.09176-.248,4.95964.744.868.99193.49605,3.22374,1.61187,4.09176,1.116.86789,2.97579,1.73577,3.47183,2.10776a4.70271,4.70271,0,0,1,.86788,2.97579c-.1239.744-2.60379-.86788-3.84367-1.61186s-5.57959-1.98386-7.19146-2.47976-3.953-1.116-5.01433-1.612a7.17194,7.17194,0,0,0-4.40893.372c-.372.372.99193,3.34778.99193,4.21567a26.402,26.402,0,0,1-1.05626,4.21581c-.30766,1.11583,1.18016,3.96772,1.92414,4.21566s2.10778,2.72771,2.97579,4.21567,2.85175,4.09163,3.59573,5.2076,3.59573,3.34778,2.6038,3.59573-4.09176-.12405-4.95965,0-3.84367-1.23988-3.96772-2.6038c-.1239-1.36392-.248-5.08369-.99193-5.95158s-2.35585-2.72784-3.59573-3.22374-1.48782-3.34778-1.48782-4.7117.49589-6.92966,0-7.92845-3.71977-2.11475-3.47183-3.10668a36.03929,36.03929,0,0,1,2.72785-6.32357c.62-.74385,2.09587.744,3.27967.124s.564-3.09983,1.80388-3.96772S480.31062,437.67046,481.92251,436.55449Z" transform="translate(154.52229 -325.4165)"/><path class="cls-2" d="M471.84013,438.29655c-1.24952.46122-1.44964,3.78942-2.00078,4.498s-3.53727.30724-3.41407-1.67676c.12335-1.98386-.7974-5.97269-.59043-6.94644s1.65648-1.79213,2.685-2.913,1.11542-3.98408,1.63369-5.54365.84133-2.144,2.82531-3.0204,4.322-3.58286,5.66-4.2902,1.89154.86145,1.69156,1.46125-3.39924,4.19819-3.87612,5.01321,1.4916,1.06129,1.753,1.96876-.33941,9.70421-1.23135,9.84252A41.30067,41.30067,0,0,0,471.84013,438.29655Z" transform="translate(154.52229 -325.4165)"/><path class="cls-2" d="M482.80773,414.85621c-.90957,1.10018-1.62921,2.521-.76133,3.36834s2.23194.72329,2.72784,1.71522a2.02575,2.02575,0,0,0,2.97579.744c1.23988-.744,2.47975-4.21567,2.85174-5.2076s1.86-4.46375,1.116-5.33164-3.47169-.61994-4.33971,0A47.7492,47.7492,0,0,0,482.80773,414.85621Z" transform="translate(154.52229 -325.4165)"/><path class="cls-2" d="M468.64185,467.55226c.68035,0-1.25344-1.98386,0-2.35585s2.12147-.99193,3.48539,0,1.366,3.34778.683,3.84368-1.74179,4.09176-2.08036,4.46375a3.15995,3.15995,0,0,1-2.52828.61994c-.91012-.248-1.65256-4.43662-2.39724-4.69814s-.29354-2.61736.53477-2.61736S467.8843,467.55226,468.64185,467.55226Z" transform="translate(154.52229 -325.4165)"/><path class="cls-2" d="M462.70383,463.58454c-.87025.604-2.7277,2.47976-2.47975,3.09984s1.23988,2.7277,2.47975,2.2318C463.94387,468.42015,463.6664,462.9165,462.70383,463.58454Z" transform="translate(154.52229 -325.4165)"/><path class="cls-2" d="M474.66293,472.13992c-1.47328-.47911-2.65972,3.09969-2.41179,3.71977.24809.61994,1.35191,1.85982,2.41179,1.23988C475.723,476.47963,476.95082,472.8839,474.66293,472.13992Z" transform="translate(154.52229 -325.4165)"/><path class="cls-2" d="M599.83768,575.23826c-.372-1.67382-.186-5.0216,1.302-6.88156s1.48783-7.4394,2.6038-7.6254,2.6038-.372,3.53364,1.488.186,7.43941,0,8.74124,1.85995,2.41794,2.23194,4.27776-.558,4.46361-1.86,4.8356S599.83768,575.23826,599.83768,575.23826Z" transform="translate(154.52229 -325.4165)"/><path class="cls-2" d="M596.11791,575.98224c-.346.93977-.55785,14.135,0,14.32082s2.646-.37185,3.55489,0,5.74447-6.47027,5.74447-7.14083S596.42907,575.13757,596.11791,575.98224Z" transform="translate(154.52229 -325.4165)"/><path class="cls-2" d="M573.05572,571.89048c-.7486-.24949,0-5.57959,0-6.69543s3.34778-5.02174,4.09162-5.76558,2.97579.186,3.53378,0-2.41781,5.28647-3.16179,6.084S575.28752,572.63446,573.05572,571.89048Z" transform="translate(154.52229 -325.4165)"/><path class="cls-2" d="M567.47613,571.95117c-.186-1.17653-.744-7.5001,0-8.05809s2.23181,0,2.78979,0,1.11584,7.37494,0,8.05809A3.60752,3.60752,0,0,1,567.47613,571.95117Z" transform="translate(154.52229 -325.4165)"/><path class="cls-2" d="M729.65605,506.06174v74.03114a3.35833,3.35833,0,0,0-1.98388,2.64687c-.248,1.98372-1.85981,3.59573-1.73591,4.33957s3.71979,4.21567,3.71979,4.21567v41.909s-2.74143-2.23194-3.7265-3.22387-3.34093-3.0997-3.96085-4.33958c-.6201-1.24-1.488-3.34778-3.2239-4.46375-1.73577-1.11583-4.46361-2.47975-5.45554-3.59573-.99193-1.11583-3.34778-1.11583-3.34778-2.23181s2.72784-6.19952,2.8519-6.69556c.12389-.49589-1.36394-.86788-1.85995-.1239s-2.85177,4.21567-3.47171,4.33971a39.22347,39.22347,0,0,1-5.20759-.124c-1.488-.12405-2.10791.86788-2.97579,1.116s-2.72785-.24809-3.22374-.24809c-.496,0-.61994-1.48782-1.61185-1.36378s-3.47184,2.35571-4.09178,2.35571-1.61187-1.11583-2.85175-1.36378-1.488-2.97579-1.116-3.84381,4.09176-2.97579,4.7117-4.21567.61994-3.96772-.124-4.7117-4.40866-2.35571-4.74611-3.22374a8.16969,8.16969,0,0,1,0-3.47169c.15845-1.116,4.49816-.24794,5.86208-.496s.99193-1.85982.86791-2.23181-7.56347,1.23988-8.30745.744-1.48783-2.35586-1.73578-2.97579,3.0997-4.33972,2.47976-5.45555-3.96772-2.35585-4.95965-3.47182-3.09969-2.47976-3.22374-3.22374.12405-5.45554,0-6.44747-4.21566-2.72785-5.08355-3.47183.61994-3.47168,0-4.95965a7.554,7.554,0,0,0-4.7117-3.84367c-2.23181-.61994-6.07549-1.61187-7.19146-2.6038s-4.21567-4.21567-5.45554-4.33971-5.45569.99193-7.81154,0-11.65507-4.46362-13.26694-5.57959a42.16587,42.16587,0,0,0-7.93544-3.84368c-1.48782-.372-4.95965,1.61187-6.69542,1.61187s-5.33164-2.10776-6.32357-2.97579-4.33971-2.35585-5.08369-3.09969,1.86-4.09177,1.36392-4.83575-3.34778-.49589-3.59573,0c-.248.496-.86789,2.4799-2.23181,1.73591s-4.21566-1.11583-5.45554-1.36392-1.30714-2.35571-1.95547-2.6038c-.64833-.24794-2.50828.868-3.25227.744s-.49588-3.71977-1.11583-4.33971-2.23181-.12391-3.09983-1.11584,0-4.33971,0-5.33164,2.60381-2.85174,3.34779-3.47168-.49591-2.4799-.99194-2.85189-4.09163,3.47183-4.21567,4.21567.86789,5.08369,0,5.45568-1.98386.372-2.35585.86789,2.35585,2.23181,2.1079,2.6038-1.3098,1.61187-2.14286,1.488c-.83291-.124-1.08087.4959-1.57689,1.23988s1.73589,3.09969,1.488,3.47168c-.2481.372-4.09178,1.61187-5.4557,2.10791s-2.85174,2.23181-4.09161,1.73577c-1.24-.49589-1.86-2.7277-2.9758-3.34764s-2.52155-5.45568-2.43864-5.95158,4.4225-1.23988,4.5464-1.61187a9.4027,9.4027,0,0,0-1.61187-3.71977,3.99269,3.99269,0,0,0-2.938-1.23988c-1.40168,0-1.1617-2.6038-1.90161-3.22374a10.31576,10.31576,0,0,0-3.83964-1.488c-.99193-.1239-6.19952-.61994-6.57152-2.10776s-.496-4.33971,0-4.83575,5.08356-.49589,6.94351-.49589,4.174,2.60379,5.37276,2.85174,2.19069-.99193,3.1825-1.48782,1.85995-5.2076,3.71975-5.57959,6.07563-.744,6.69556,0-.868,4.71156,0,4.8356,2.23181-3.59572,2.97579-3.59572,2.97579,1.61186,3.84368,1.48782.86789-2.59485,1.48784-3.15731,2.72783-.19033,3.34777-.81027-1.98386-3.22388-2.2318-3.71977-2.85176.86789-3.71978,1.116-5.95158-.83544-6.81947-1.22365c-.86789-.38836-1.23988-1.62823-2.10776-1.75214s-2.72785,2.35571-3.84382,2.35571-6.57152,1.488-7.56345.868-2.10776-2.6038-2.72768-2.47989-1.36394,2.72784-2.35587,2.60379a9.102,9.102,0,0,1-3.59573-2.10776c-.99193-.868-3.71977-2.47989-4.33969-3.34778s.24793-3.09969,0-4.21567,1.61185-3.47182,1.23986-3.84367-2.47976-1.86-2.85175-.868-1.36392,2.6038-2.1079,2.23181-2.97579-.23047-3.71963-.73517-.372-2.24048-1.488-2.36453c-1.11583-.124-3.34778.744-4.8356,1.116s-2.72784.61994-3.34778-.24809-2.10777-3.131-2.47976-2.92936a26.5526,26.5526,0,0,1,3.71963-3.39407c1.36393-.99193,2.85189-3.66915,2.35585-4.0045a2.32748,2.32748,0,0,1,.24809-3.311c1.36378-.99193,3.22374-1.488,4.46363-2.23181s3.71976,1.11584,5.08354,1.23988,1.86-.10223,3.09983-1.415c1.23988-1.31288.372-3.42065,1.98386-4.04058a65.80085,65.80085,0,0,1,7.43942-2.72785,10.37005,10.37005,0,0,1,5.24884.744c.70273.37185.33073,1.98386,1.19876,2.10776s2.97565-.372,3.71963-.248,3.22374,2.72784,4.83561,3.47169,1.85995,2.6038,2.60381,2.72784a31.39031,31.39031,0,0,0,3.96771.496c1.116,0,1.24-2.60393,2.1079-2.85188a26.00988,26.00988,0,0,1,6.57152.496c1.73591.372,3.09969,3.34764,3.71977,4.21567s-1.55509,1.98386-1.95547,2.72784,2.32732,1.36378,2.82336,1.85982c.49589.49589.61993,1.58054.61993,4.13805s-.61993,3.81487-1.36392,4.426-2.35585,1.7271-2.6038,2.34718,1.116,2.85174,1.488,3.22373,1.23988-.92564,2.10776-1.14478c.868-.21914.53813,2.50871.82705,3.25255s-2.06692,3.34778-2.191,3.96772c-.1239.61994,1.77815,3.09983,2.191,3.96772s2.14874,8.30743,2.64479,8.43133c.49588.124.61993-2.85175.99192-2.97579s-.744-4.46361-.12405-4.8356,1.23988-2.72771,2.23181-2.47976.99193,4.46362,1.61187,5.82754,1.86,2.85174,1.61187,3.96772-.74384,4.58765-.4959,4.8356,1.73592-.99193,2.60382-.86788c.86787.1239,1.3639,1.61186,1.8598,1.98385s-.12391,3.0997.61994,3.34779a24.68759,24.68759,0,0,0,5.08369,1.61186,7.66081,7.66081,0,0,0,4.46361-1.116c.744-.61994.24795-2.72784,2.23181-3.84368a42.99541,42.99541,0,0,0,5.33164-3.59572c.86789-.744,1.94932-3.34778,2.15266-3.84382.20319-.49589,4.5429-3.09969,5.41081-3.59573.86787-.49589,0-4.58766.86787-5.08355s3.09983-1.85982,3.59572-2.1079,2.72785,1.24,3.71978.99193,3.84367-3.0997,4.7117-3.22374,3.71963-.12391,4.46361-.4959,0-3.71977.372-4.7117,2.97579-1.85981,4.09163-2.35585,3.09983-.1239,4.33971-.49589,2.10792-3.09984,3.34778-3.34779a25.39685,25.39685,0,0,1,4.33971-.124c1.23988,0,2.47977,3.22374,3.47168,3.96772a9.96879,9.96879,0,0,0,5.0837,1.23988c1.36392-.12391,2.72772-1.36378,3.84369-.74384s3.71975,1.73577,5.45553,2.85174,1.86,3.71977,3.22373,4.33971,5.57959,2.23181,7.06756,2.23181,4.21566,2.35585,5.08355,2.85175a6.7097,6.7097,0,0,0,4.2158.372c1.36381-.372,2.85177-2.23181,4.33958-2.23181C715.02517,500.6578,729.65605,506.06174,729.65605,506.06174Z" transform="translate(154.52229 -325.4165)"/><path class="cls-2" d="M648.8141,490.7385c.3043-1.01472-3.34778-1.11583-5.2076-.61994-1.86.496-6.4476.30123-7.06755-.28333s-3.47169-1.45258-5.95158-1.82457a26.5178,26.5178,0,0,0-7.06741,0c-1.23988.24809-1.488,2.1079,2.35585,2.72784a36.79083,36.79083,0,0,1,8.05934,2.23181c.744.372,1.36392,2.85188,2.47989,3.09983s5.08356.86789,6.69543,0S648.44211,491.97838,648.8141,490.7385Z" transform="translate(154.52229 -325.4165)"/><path class="cls-2" d="M638.77076,479.45542c.17818-.59393-3.34765-2.72784-4.33958-4.09176s-3.71977-3.84368-4.7117-4.09163-2.6038,1.11584-3.09983,1.48783.868,2.97579.99195,3.96772,2.10788,2.23181,2.10788,2.72784-.61992,3.47169.372,3.47169a67.43309,67.43309,0,0,0,7.43943-.99193C638.27488,481.68723,638.3989,480.6953,638.77076,479.45542Z" transform="translate(154.52229 -325.4165)"/><path class="cls-2" d="M608.269,476.35559c0-.66777,4.09176-.61994,4.83574,0s-1.98384,4.95965-2.4178,4.8356A9.75681,9.75681,0,0,1,608.269,476.35559Z" transform="translate(154.52229 -325.4165)"/><path class="cls-2" d="M531.02281,474.19049c-1.4386.31129-2.35585,3.405-3.09983,3.65306s1.488,3.22416,1.54991,3.53392,2.91384,3.13018,3.40974,2.464,3.59573-4.37048,3.96772-5.30829S533.00667,473.7613,531.02281,474.19049Z" transform="translate(154.52229 -325.4165)"/><path class="cls-2" d="M527.77138,468.991c-.45967.10223-1.21218-.44681-1.46026-.94284s2.05251-2.55905,1.46026-3.38736-5.67594.08433-5.92388,0-.4959-1.32421,0-2.31613,4.33971-3.34779,5.33164-3.71978,2.35585,1.36392,2.85174,2.35585,1.6074,2.49151,2.29152,2.54758,4.21092,3.032,3.00558,3.65195S529.10762,468.69383,527.77138,468.991Z" transform="translate(154.52229 -325.4165)"/><path class="cls-2" d="M532.3224,458.129c-1.03626.1804-1.18016,2.23181,0,3.22374s4.404,3.34778,5.396,3.96771,5.70347-.57476,5.33148-1.4653a25.83186,25.83186,0,0,0-3.96772-5.28158C538.33831,458.129,533.746,457.88091,532.3224,458.129Z" transform="translate(154.52229 -325.4165)"/><path class="cls-2" d="M516.51585,492.14647c-1.69563.38-4.58765,1.81577-4.21566,2.43571s7.06757,3.34778,8.18338,3.84381c1.116.4959,3.34778-2.3118,3.96772-3.13969s2.60382-2.84769,2.72785-3.13983-2.85189-3.26779-3.71978-2.89579-3.12906,3.18793-3.73431,2.89579A5.57121,5.57121,0,0,0,516.51585,492.14647Z" transform="translate(154.52229 -325.4165)"/><path class="cls-2" d="M511.06031,479.55835c-.463,1.0936-.372,3.12081.4959,3.36876s4.09176.86788,4.46375,0-.744-3.78648-1.488-3.8771S511.26786,479.06819,511.06031,479.55835Z" transform="translate(154.52229 -325.4165)"/><path class="cls-2" d="M682.04354,597.7426c1.61592.22026,5.33164,3.96772,5.82767,4.83561s-2.47989,4.21567-2.91383,4.33971.43394,5.70349-.6819,6.44748-5.45568,5.70363-6.69556,5.57958a51.81155,51.81155,0,0,1-5.08355-1.11583c-.99193-.24809-3.71977.8725-5.08369,1.11807s-3.84368-.12628-4.33971-.87012.24794-3.59573,1.36392-4.95965,2.47991-1.98386,3.34778-2.97579.24795-5.57959,1.98386-6.81947S679.31584,597.37061,682.04354,597.7426Z" transform="translate(154.52229 -325.4165)"/><path class="cls-2" d="M684.15146,616.21714c-1.35205.306-1.2399,2.97579-.86791,3.71977s3.22374.496,3.96758,0c.744-.49589,3.71978-.39842,3.22388-1.62515S687.96883,615.35345,684.15146,616.21714Z" transform="translate(154.52229 -325.4165)"/><path class="cls-2" d="M482.0464,512.93281c-1.23987-.4959-.99669,3.09983-1.67619,3.71977s1.215,1.85982,2.43752,2.6038,2.46254,2.85175,3.08248,3.84368.99193,2.47989,2.23181,2.72784,2.72784-.744,3.59573-.86789.61994-1.98386,1.116-2.72784.24795-2.61093,1.11584-2.85538a5.67993,5.67993,0,0,1,3.34778.49953c.372.372-1.73592,2.35585-1.61187,2.97579.1239.61994,1.73591,1.36392,2.72784,1.61187s3.47168-.86789,4.95951-.61994,4.7117,1.36392,5.57959,1.23988c.868-.12391-.12391-3.0997.61994-3.22374s2.526.496,3.86689.61994,1.71269,1.73591,3.94464,2.6038,4.58766,1.116,6.19953,1.98386a41.31976,41.31976,0,0,0,4.188,1.73591c1.14353.496,2.2595,4.09176,2.75554,4.21566s2.35571.61994,2.97565,0,1.488-9.66086.99193-9.914-4.46362.62511-4.95951,0-.44388-3.601-.96592-4.09694-3.99373-2.85174-4.73772-3.34778-5.45554,0-6.69554-.1239-1.3638-2.85189-2.23182-2.60394-6.01212-2.35571-7.46975-2.47976-3.93738,3.09984-4.80526,3.47169a13.6251,13.6251,0,0,1-3.47181.496c-.372,0-.62-2.97579-1.11585-3.22373s-2.23195.372-2.97579.24794-.744,1.23988-1.488,1.48783C492.83372,513.1809,482.0464,512.93281,482.0464,512.93281Z" transform="translate(154.52229 -325.4165)"/><path class="cls-2" d="M475.95819,519.25638c1.0178,1.20911,2.61652-.86789,3.48441,0a2.59342,2.59342,0,0,1,0,3.22374c-.61994.496-.31885,2.72784-1.46126,2.97579a1.56483,1.56483,0,0,1-2.02315-1.11584,15.59659,15.59659,0,0,0-1.29526-2.85188c-.30388-.248-3.89961-2.28118-3.4037-2.75246S474.70544,517.76855,475.95819,519.25638Z" transform="translate(154.52229 -325.4165)"/><path class="cls-2" d="M474.66293,514.29673c-.61183.3794,1.06,2.85189,1.92792,2.85189s2.23181-2.35585,2.23181-2.85189S475.46285,513.80084,474.66293,514.29673Z" transform="translate(154.52229 -325.4165)"/><path class="cls-2" d="M478.82266,527.06778c-1.076.386-2.30746,1.24-2.14566,1.98385s-.13873,2.23181,1.0655,2.23181,2.56812-.99179,3.312-1.11583a14.218,14.218,0,0,0,3.47182-.99193c.4959-.372-.248-2.23181-.99193-2.72784S479.5114,526.82081,478.82266,527.06778Z" transform="translate(154.52229 -325.4165)"/><path class="cls-2" d="M468.64185,520.99229c-.53086.29857.6335,3.22374,1.50153,3.34778s.89809-.99193,1.069-1.674S469.74426,520.37235,468.64185,520.99229Z" transform="translate(154.52229 -325.4165)"/><path class="cls-2" d="M463.53312,525.51982c1.15457-1.05584,1.20114-3.35785,0-3.63279a13.33436,13.33436,0,0,1-3.33154-1.88667c-.84539-.496-2.95329-2.72784-4.06926-2.85174-1.11584-.12405-6.32343.37185-7.68735,0s-1.36393,1.48782-2.6038,1.73577-2.85175-.87418-3.34778-.623-1.48587-1.36084-2.35488-.61686c-.86886.744-.49491,7.06755,0,7.3155.49506.24795,3.22278.07118,4.46278,1.33749s4.71156,4.61409,5.57959,4.98594,3.22373-.37185,4.71156,0,1.61187-1.73577,2.85189-1.85981a16.203,16.203,0,0,0,4.12294-.63309C463.07583,528.30779,463.53312,525.51982,463.53312,525.51982Z" transform="translate(154.52229 -325.4165)"/><path class="cls-2" d="M463.53312,531.28344c-1.3653.50149-1.26253.85852-1.66585,2.0412s1.53426,1.55467,2.54928,1.55467,2.21011-1.86,1.92259-2.35585S464.59064,530.89509,463.53312,531.28344Z" transform="translate(154.52229 -325.4165)"/><path class="cls-2" d="M-95.30335,380.74406s-3.051.32459-3.423,1.25456,1.85982,3.34779,0,4.09163-4.09176,1.85995-4.27762,3.34778,2.04582,6.88156,2.04582,6.88156,2.60379,4.09162,2.78979,4.64961.06419,3.53377-.99081,4.27761c-1.055.744.80481,3.90577.80481,4.83575s-.01412,6.56047.73685,9.51081" transform="translate(154.52229 -325.4165)"/><path class="cls-2" d="M-77.93961,455.8021a37.81224,37.81224,0,0,0,3.20546-3.50078c1.11592-1.48782.74394-3.16164,1.67387-4.09162s2.7898-.372,3.53374,0,3.53373,2.97579,4.83565,2.4178,1.48788-1.20379,1.48788-2.9267-3.16176-4.32671-1.85986-5.25668,2.6038-.372,4.09169,0,4.0917-.45982,5.02163-.50891,1.11592,2.92671,1.3019,4.04268-1.67388,6.13744,0,6.13744,3.73205-.55785,5.58576-.18586,3.7136,2.72379,5.01543,3.87263.372,3.93877,0,5.0546-.70483,4.09176.67056,4.83575c1.37525.74384,3.97919,3.53363,5.467,5.20759s2.4178,4.09163,3.53377,5.0216,7.25341,3.71978,8.18339,3.53378,2.6038-3.16178,3.71963-4.09176,3.53378-.558,4.64975.372,5.0216,3.92339,6.50943,3.72858,2.78979-5.21655,4.64975-5.96039,11.97615.01231,11.97615.01231" transform="translate(154.52229 -325.4165)"/><path class="cls-2" d="M-53.62982,415.1759s-.83183,4.57787-1.01783,5.87984,2.41782,1.85982,2.78979,2.7898c.372.92983.744,4.09162,0,5.0216s-1.1349.744-2.79928,1.11583-2.03635,2.60394-2.03635,3.71977-2.78979-1.85981-2.60381,0,2.83621,7.11245,1.88307,8.4849" transform="translate(154.52229 -325.4165)"/><path class="cls-2" d="M-26.19172,479.45542s1.85981,2.6038,0,4.09162a21.799,21.799,0,0,1-5.0216,2.97579c-1.302.558-1.86,4.09177-1.674,4.83561a17.38285,17.38285,0,0,1-.03483,5.2076c-.33716.744-.035,2.78979,0,3.90576s2.26663,1.85982,2.26663,3.34778-.11006,3.53364,1.43287,4.46362,3.77473,1.488,5.2627,2.4178c1.48782.93,2.78979,2.04595,4.27761,1.116,1.488-.93,4.64975-4.27776,6.50957-4.46376s3.90577.93,4.64961.372c.744-.55784-.186-3.34764,1.302-3.71963s2.4178,0,3.53378-.744c1.11583-.744,1.30183-3.53378,2.60379-3.53378s1.48783,4.64975,2.41781,5.57959,3.86605-2.6038,3.97876-4.64961,2.34467-5.57959,4.01863-5.76558a10.76053,10.76053,0,0,0,5.2076-1.67382c1.48782-1.116,4.09162.55784,5.20759,1.11583s3.32387.66371,4.73072-3.01593" transform="translate(154.52229 -325.4165)"/><path class="cls-2" d="M-41.98387,506.86334s1.16115-.75,2.64911-1.61788,5.794-.7314,7.17468-3.58944" transform="translate(154.52229 -325.4165)"/><path class="cls-2" d="M-19.6823,511.817s1.302,3.34778,1.79787,4.33971,2.85188,1.61186,3.59573,1.61186,2.97579.74385,2.97579,1.36393-.4959,3.59572,0,3.96758,2.97579-1.36379,4.21566-.99193S-4.977,525.58-4.3013,525.704s3.27968.4959,2.53569,1.36379a13.08567,13.08567,0,0,1-5.57958,2.72784c-1.48783.124-1.73578,1.85981-1.23988,2.97579s4.58766,3.59573,5.82753,5.57959,1.98386,2.60379,3.96772,2.72784c1.98386.1239,4.95965.49589,6.69557,1.85981,1.73577,1.36392,1.61186,2.47976,1.98386,3.96772a12.3264,12.3264,0,0,0,1.61186,3.96772c.4959.4959-2.64253,4.30517-2.64253,4.30517" transform="translate(154.52229 -325.4165)"/><path class="cls-2" d="M51.40648,537.90642s-2.95579,1.16716-3.20374,0-.99193-4.30153-1.98386-4.40823-3.22374-2.0907-4.09176-2.33865-4.83561,3.84367-4.95965,4.46361-.248,3.09984-.99193,3.59573a15.06116,15.06116,0,0,1-5.82754,1.24,22.84916,22.84916,0,0,0-5.87047.49589c-1.44489.372-3.67684,2.72785-3.0569,3.96772s1.86,4.09163,1.36392,5.08356c-.49589.99193-1.98386,1.36392-2.60379,1.73591s-1.61187,2.35585-2.47976,2.6038-6.19953-3.47169-6.19953-3.47169" transform="translate(154.52229 -325.4165)"/><path class="cls-2" d="M63.1249,594.07206a13.701,13.701,0,0,1,1.07262-3.397c.61994-.99193.61994-4.58766,0-5.45554s-.23564-3.09984-.30374-3.84368,2.7835-1.73591,3.52748-1.85995,3.47182,1.98386,4.09176,1.98386,2.23181.124,3.0997-.61994,1.27036-7.50751,1.27036-7.50751" transform="translate(154.52229 -325.4165)"/><line class="cls-2" x1="224.02628" y1="251.21966" x2="223.10679" y2="254.50982"/><path class="cls-2" d="M109.20621,589.23911s.496,4.51018,0,4.83295-2.72784-.69476-3.59573,0-1.488,2.92656-1.98385,3.79445c-.496.868.372,2.35585.99193,2.232.61993-.12405,4.0368-.4815,4.80819.00727.77139.48862-.09663,6.56424-.09663,6.56424" transform="translate(154.52229 -325.4165)"/><path class="cls-2" d="M130.79485,611.5941a15.01742,15.01742,0,0,1,2.96152-2.32033c1.11584-.496-.744-2.6038,0-3.47182s1.73591-2.7277,2.85175-2.35585,2.6038,1.86,4.09176,2.72784,1.73577,2.47975,2.85175,2.6038,3.34778,0,4.33971.24794c.99193.24809-.99193,2.85189,0,3.22388s1.96288,2.26285.98144,5.09908" transform="translate(154.52229 -325.4165)"/><path class="cls-2" d="M151.23912,617.33311s-.12405-2.97578.99179-3.59572,4.33971-2.10791,5.20774-2.72785.99193-2.47975.61993-3.34764.248-2.72784-.99193-2.85188a3.05687,3.05687,0,0,1-2.321-2.35585c-.15886-.86789-.70916-4.71157,0-5.45555a1.90357,1.90357,0,0,1,2.693,0c.74384.744.99193,2.35585,2.47975,2.10791a4.22973,4.22973,0,0,0,2.72784-2.66589c0-.43395-.496-6.28176,0-7.20153s3.11913-2.51793,3.11913-2.51793" transform="translate(154.52229 -325.4165)"/><path class="cls-2" d="M402.88038,639.13194s.75084.64357,1.8622,1.57341,1.48348,3.16178,2.59946,2.6038,2.04581-3.14682,2.78979-4.17721a5.48245,5.48245,0,0,0,.558-4.936" transform="translate(154.52229 -325.4165)"/><path class="cls-2" d="M420.361,630.16038s-1.30183,2.36158,0,2.73357,2.78979-2.36158,3.34778-1.36671,1.85983,3.53657,0,4.40446-1.674,3.09983-.93,4.40166" transform="translate(154.52229 -325.4165)"/><path class="cls-2" d="M125.573,424.77537s.24794,5.95158.744,6.94351,3.34764,2.4799,4.71157,3.34778,4.46374,2.72785,4.95964,3.59573,2.72784,2.6038,3.47169,2.6038,1.116,3.09983,2.60379,3.09983a46.23946,46.23946,0,0,0,6.44762-.744c.99193-.248,1.98386-2.85174,2.72784-3.22374s5.3315.4959,7.68736.248,5.45553,2.23181,6.69555,1.61187,4.21567-3.09969,5.3315-3.59573c1.116-.49589,2.97579-.744,3.71977-1.36392s1.23988-4.95965,2.60381-5.70349a50.70156,50.70156,0,0,1,6.9435-2.232c1.73591-.49589,5.95158-.61994,6.69542-.1239s3.22388,3.96772,4.21581,4.58766,3.59573,1.98386,5.45554,1.85981,3.84369.12405,4.83561-.124,3.71977-4.09163,4.21567-4.21567,5.57958-.49589,6.94351-.61994c1.36392-.1239,4.09176,1.23988,4.8356.868s1.24-4.58766,1.612-5.45569,3.47168-2.97579,3.84368-3.84367-2.10791-3.71977-1.98386-4.09176a13.15938,13.15938,0,0,1,3.59572-2.47976c.61994-.124,3.96772-1.116,4.46362-2.1079s-.74384-2.47976-1.11584-3.22374-1.85995-2.35585-1.36392-3.34778,2.71064-3.84368,2.59527-4.58766,2.61233.372,3.48022,0,2.2318-3.71963,2.72784-4.8356c.49589-1.11584,2.23181-3.0997,2.6038-3.84368s-1.98386-3.22374-2.10791-4.33971a11.256,11.256,0,0,1,1.24-5.45555c.86789-1.23987,1.36392-5.08369,1.61188-5.82753s2.35584-1.61187,3.59572-2.1079,1.73577,2.47975,2.85174,2.2318,1.85982-2.09559,2.72785-2.28774c.86788-.192,1.85981.68818,3.59572,0s2.85175,1.54376,3.71964,1.54376,2.72784-2.10776,4.09176-2.23181A71.80014,71.80014,0,0,1,272.998,376.667c.744.248,1.23988,2.4799,1.98386,2.97579.744.496,3.09984,2.47976,3.34778,3.22374s2.23181,5.90082,2.23181,5.90082" transform="translate(154.52229 -325.4165)"/><path class="cls-2" d="M234.33356,365.77463s-1.50853,3.57685-1.26057,4.44488a11.52311,11.52311,0,0,0,1.26057,3.34778c.59924.74384.39269,4.33957,0,4.58766s-2.87245,1.48782-3.49239,1.36378-.744-2.35571-1.24-2.85175.124-3.84367,0-4.58765-2.35571-2.97579-2.85175-3.22374-1.48782,2.75525-1.23988,3.79543.91362,8.23163-.03915,9.22356a14.26525,14.26525,0,0,1-4.5485,2.4799c-1.36392.49589-4.71171-4.21567-5.82753-5.33165-1.116-1.116-1.23989-7.56344-1.23989-7.56344" transform="translate(154.52229 -325.4165)"/><path class="cls-2" d="M212.82673,431.0335s.33619,5.02509,0,5.645-2.81608.744-3.436,1.116a23.02856,23.02856,0,0,0-3.34778,2.7277c-.49589.61994.744,2.47989,1.36392,2.85188s0,3.22374-.372,4.21567-3.0997,1.73577-3.96772,2.10776-3.47169,4.46376-3.84368,5.33164.248,3.96772,0,4.71171,0,2.85174-.61994,3.34778-3.71976.86788-4.58765,1.11583,1.23988,4.7117.86789,4.95965-3.96773-.496-4.95952,0-4.2158,2.97579-5.70363,3.34778-4.58766,1.61187-5.45554,1.36392c-.868-.24808-5.70363-.61994-6.32357-.744s-2.97579,2.85175-4.09177,3.22374c-1.11583.372-4.71156,1.85981-5.08355,2.35585s.61994,3.47168,0,3.59573a33.81782,33.81782,0,0,0-4.21567.99193c-.868.372-2.23194,4.09162-3.34778,4.33971s-3.84367-.744-4.58766,0,.4959,2.85174.61994,3.96772c.12405,1.11583-1.36392,2.6038-1.48782,3.47168s-.496,4.09162,0,5.2076,2.23181,1.85981,3.09969,2.35585c.86789.49589-.248,2.85175-.124,4.21567s1.98386,3.22373,1.98386,3.22373-.37185,1.98386-.99193,1.98386-2.47976-.99193-2.7277,0-5.48142,6.14611-5.48142,6.14611" transform="translate(154.52229 -325.4165)"/><path class="cls-2" d="M259.37206,502.27526s-2.36886,1.73032-3.73278.86229c-1.36392-.86788-2.1079-1.73577-3.09968-1.98386-.99194-.24794-4.09178-.61993-4.95966-1.36378s-.496-3.96772,0-5.45568,1.98386-4.09162,1.73577-5.2076-1.53719-2.35585-2.25642-3.34778-1.33931-4.46361-2.57918-5.57959c-1.23988-1.11583-4.71171-2.10776-5.95158-3.09969s-2.6038-1.86-2.6038-3.22374.744-3.96772,0-4.83574-2.6038-1.98386-2.97579-3.22374,2.6038-5.45554,2.47989-6.32357-2.17223-2.23181-2.51206-2.6038-2.32368,3.84382-3.31561,3.96772,0-2.15433,0-3.99093,1.488-5.68028,1.24-7.16825c-.24808-1.48782-.372-4.8356-2.35585-5.3315s-3.71977,1.36378-4.8356,1.85982c-1.116.49589-3.59573,2.35585-4.58766,1.73591a37.68792,37.68792,0,0,0-5.57959-2.35585c-1.24-.372-6.44761,1.98386-6.44761,1.98386" transform="translate(154.52229 -325.4165)"/><path class="cls-2" d="M215.38005,524.95805s-1.02968-3.46986-.5338-4.33775c.496-.86789,2.35585-.744,2.97579-1.61187s-1.36378-3.96772,0-4.95965,3.47183-3.71977,4.46376-4.33971,1.98386.372,2.7277-.61994,2.1079-3.09969,2.72784-3.96772-.86788-3.34764,0-4.09162,5.2076,0,6.19953-.868,1.98386-4.21566,2.72784-5.70349.61994-4.7117,1.36392-5.95158,2.10776-.99193,3.34778-1.61187,4.50935-4.06281,4.50935-4.06281" transform="translate(154.52229 -325.4165)"/><path class="cls-2" d="M345.03659,516.65258a14.21618,14.21618,0,0,0,.868-2.72784,1.72483,1.72483,0,0,1,1.61187-1.61187c.99193,0,3.47168.61994,4.21566.61994s.372,2.97579,1.23988,2.97579c.868,0,3.676-1.36378,5.43373-1.42587s2.5515.93,4.20042,1.42587c1.64907.496.93,2.35585,1.53747,2.35585s6.15478.49282,6.15478.49282" transform="translate(154.52229 -325.4165)"/><path class="cls-2" d="M316.68164,473.902s.953,6.04346,1.07709,7.47227-1.7359,2.36089-1.86,3.2587,1.73591,1.88988,2.47989,2.50982a10.815,10.815,0,0,1,2.6038,3.09984c.49589,1.11583-.124,4.8356,0,5.45554s1.61187-.248,2.35585,0,1.11584-1.85982,1.98372-2.1079,2.47989,1.24,3.84381,1.36392,1.85982-2.85175,2.97579-2.6038,2.23182,1.32406,3.59573,3.57587c1.36392,2.25166,1.98386,4.8556,3.47169,5.59945s5.45554,3.09983,6.57151,3.09983,2.10791-1.86,3.34779-1.73591,4.46361.496,5.08355.61994.24809,2.35585,1.36392,2.97579,3.71977,1.98385,4.09176,2.2318.12391,3.47183-.61994,3.59573-3.02878,2.68841-3.02878,2.68841" transform="translate(154.52229 -325.4165)"/><path class="cls-2" d="M348.19028,451.6688s-1.29373-1.59928-1.04578-2.34327,1.98386-1.23987,1.98386-2.10776-3.71978-3.09983-3.22374-4.21567a6.68191,6.68191,0,0,1,3.22374-2.85188c1.36392-.61994,4.33972,1.86,6.19952,1.36392s7.6875,0,8.67928-.372c.99193-.37185,5.20774-2.23181,5.20774-2.23181" transform="translate(154.52229 -325.4165)"/><path class="cls-2" d="M384.84231,440.46375a38.91982,38.91982,0,0,1,0,3.90227c-.12866.61994,1.53425.60722,2.56268.92355s2.39236-.31633,2.76435,0-.496,3.416,0,3.91206c.49589.49589,1.98791,4.97713,1.98791,4.97713" transform="translate(154.52229 -325.4165)"/></g></svg>